<svg xmlns="http://www.w3.org/2000/svg" width="25.001" height="24.119" viewBox="0 0 25.001 24.119"><g transform="translate(-654.999 -136.881)"><path d="M4.5,6.581V21.145a2.08,2.08,0,0,0,2.081,2.081H21.145a2.087,2.087,0,0,0,2.081-2.081V6.581A2.087,2.087,0,0,0,21.145,4.5H6.581A2.08,2.08,0,0,0,4.5,6.581Zm12.484,4.161a3.121,3.121,0,1,1-3.121-3.121A3.117,3.117,0,0,1,16.984,10.742ZM7.621,19.065c0-2.081,4.161-3.225,6.242-3.225s6.242,1.144,6.242,3.225v1.04H7.621Z" transform="translate(650.499 132.381)" fill="#657c88"/><g transform="translate(-3)"><g transform="translate(668.266 146.266)"><path d="M7.367,0a7.367,7.367,0,1,0,7.367,7.367A7.367,7.367,0,0,0,7.367,0ZM6.016,11.152,2.772,7.908,3.853,6.827,6.016,8.989l4.866-4.866L11.963,5.2Z" transform="translate(0 0)" fill="#fff"/><ellipse cx="5.768" cy="4.571" rx="5.768" ry="4.571" transform="translate(1.562 3.131)" fill="#fff"/></g><g transform="translate(669.568 147.299)"><ellipse cx="4.709" cy="3.815" rx="4.709" ry="3.815" transform="translate(1.517 2.505)" fill="#fff"/><path d="M6.263,0a6.263,6.263,0,1,0,6.263,6.263A6.263,6.263,0,0,0,6.263,0ZM5.114,9.48,2.356,6.723,3.276,5.8,5.114,7.642,9.251,3.505l.919.919Z" transform="translate(0 0)" fill="#00263a"/></g></g></g></svg>