<svg xmlns="http://www.w3.org/2000/svg" xmlns:xlink="http://www.w3.org/1999/xlink" width="24.998" height="25" viewBox="0 0 24.998 25">
  <defs>
    <clipPath id="clip-path">
      <rect width="24.998" height="25" fill="none"/>
    </clipPath>
  </defs>
  <g id="date" transform="translate(0)" clip-path="url(#clip-path)">
    <rect id="Rectangle_687" data-name="Rectangle 687" width="3" height="3" transform="translate(11.501 13)" fill="#657c88"/>
    <path id="Path_1537" data-name="Path 1537" d="M2.876,3.594V.719a.719.719,0,0,1,1.438,0V3.594a.719.719,0,0,1-1.438,0Zm12.219.719a.718.718,0,0,0,.719-.719V.719a.719.719,0,0,0-1.438,0V3.594A.719.719,0,0,0,15.095,4.313ZM23,17.25a5.75,5.75,0,1,1-5.75-5.75A5.75,5.75,0,0,1,23,17.25Zm-1.437,0a4.313,4.313,0,1,0-4.313,4.313A4.317,4.317,0,0,0,21.564,17.25ZM5.751,8.625H2.876V11.5H5.751ZM2.876,15.813H5.751V12.937H2.876ZM7.188,11.5h2.875V8.625H7.188Zm0,4.313h2.875V12.937H7.188Zm-5.75,1.294V7.187H17.251v2.875h1.438V4.456a1.568,1.568,0,0,0-1.557-1.581h-.6v.719a1.437,1.437,0,1,1-2.875,0V2.875H5.032v.719a1.437,1.437,0,1,1-2.875,0V2.875h-.6A1.569,1.569,0,0,0,0,4.456V17.107a1.571,1.571,0,0,0,1.558,1.581h8.505V17.25H1.559A.136.136,0,0,1,1.439,17.107ZM14.376,11.5V8.625H11.5V11.5Zm5.031,5.75H17.251V15.094a.719.719,0,0,0-1.437,0v2.875a.718.718,0,0,0,.719.719h2.875a.719.719,0,0,0,0-1.438Z" transform="translate(-0.001)" fill="#657c88"/>
    <g id="Group_1657" data-name="Group 1657" transform="translate(-132.003 -134.791)">
      <path id="Path_1344" data-name="Path 1344" d="M7,0A7,7,0,1,1,0,7,7,7,0,0,1,7,0Z" transform="translate(143.001 145.791)" fill="#fff"/>
      <path id="Path_1540" data-name="Path 1540" d="M6,0a6,6,0,1,0,6,6A6,6,0,0,0,6,0ZM8.594,7.141H6.05l-.025,0L6,7.141a.415.415,0,0,1-.415-.415V2.49a.415.415,0,1,1,.83,0V6.311H8.594a.415.415,0,0,1,0,.83Z" transform="translate(144.001 146.791)" fill="#00263a"/>
    </g>
  </g>
</svg>
