<svg xmlns="http://www.w3.org/2000/svg" xmlns:xlink="http://www.w3.org/1999/xlink" width="22.998" height="24.209" viewBox="0 0 22.998 24.209">
  <defs>
    <clipPath id="clip-path">
      <rect width="22.998" height="24.209" fill="none"/>
    </clipPath>
  </defs>
  <g id="driver" transform="translate(0)" clip-path="url(#clip-path)">
    <path id="Path_1343" data-name="Path 1343" d="M12.391,20.624l-.049-.252c-.081-.422-.162-.812-.252-1.267V18.96a.353.353,0,0,0-.041-.2.812.812,0,0,1,.52-.958l.341-.138.1-.049.122-.041.309-.13a4.872,4.872,0,0,1,.26-.755l-.057-.106-.122-.146c-.1-.179-.2-.357-.3-.544a.812.812,0,0,1-.122-.585.869.869,0,0,1,.284-.5l.576-.5.487-.414h0l.373-.325a.812.812,0,0,1,.568-.219.861.861,0,0,1,.52.179l.747.576c.219-.179,1.291-1.023,1.315-1.056a7.064,7.064,0,0,0-4.2-2.3,5.269,5.269,0,1,0-5.683,0A7.064,7.064,0,0,0,2.08,17.734v3.41a.585.585,0,0,0,.585.585H12.676S12.408,20.722,12.391,20.624Z" transform="translate(-2.08 -1.045)" fill="#657c88" fill-rule="evenodd"/>
    <g id="Group_1656" data-name="Group 1656" transform="translate(-131.002 -140.791)">
      <path id="Path_1344" data-name="Path 1344" d="M7,0A7,7,0,1,1,0,7,7,7,0,0,1,7,0Z" transform="translate(140 151)" fill="#fff"/>
      <path id="Path_1333" data-name="Path 1333" d="M6,0a6,6,0,1,0,6,6A6.023,6.023,0,0,0,6,0ZM6,1.406a4.626,4.626,0,0,1,4.406,3.306.349.349,0,0,0-.178-.191A10.344,10.344,0,0,0,6,3.539a10.344,10.344,0,0,0-4.228.983.349.349,0,0,0-.178.191A4.626,4.626,0,0,1,6,1.406Zm-4.5,5.5a.351.351,0,0,0,.29.258l.845.117A2.473,2.473,0,0,1,4.72,9.368l.117.845a.349.349,0,0,0,.208.269A4.633,4.633,0,0,1,1.5,6.905ZM6,7.055A1.055,1.055,0,1,1,7.055,6,1.056,1.056,0,0,1,6,7.055Zm.955,3.428a.349.349,0,0,0,.208-.269l.117-.845A2.473,2.473,0,0,1,9.368,7.28l.845-.117a.352.352,0,0,0,.29-.258A4.633,4.633,0,0,1,6.955,10.482Z" transform="translate(141 152)" fill="#00263a"/>
    </g>
  </g>
</svg>
