<svg xmlns="http://www.w3.org/2000/svg" xmlns:xlink="http://www.w3.org/1999/xlink" width="31" height="17.35" viewBox="0 0 31 17.35">
  <defs>
    <clipPath id="clip-path">
      <rect width="31" height="17.35" fill="none"/>
    </clipPath>
  </defs>
  <g id="finalized_routes" data-name="finalized routes" transform="translate(0 0.001)" clip-path="url(#clip-path)">
    <g id="Group_1392" data-name="Group 1392" transform="translate(8.617 2.842)">
      <g id="_4._Embarques" data-name="4. Embarques" transform="translate(0 0)" opacity="0.6">
        <path id="Path_1242" data-name="Path 1242" d="M11.832,21a1.31,1.31,0,1,0,1.312,1.31A1.311,1.311,0,0,0,11.832,21Z" transform="translate(-2.786 -9.127)" fill="#fff" opacity="0.6"/>
        <ellipse id="Ellipse_76" data-name="Ellipse 76" cx="1.312" cy="1.31" rx="1.312" ry="1.31" transform="translate(17.791 11.888)" fill="#fff" opacity="0.6"/>
        <path id="Path_1283" data-name="Path 1283" d="M22.759,15.259a.2.2,0,0,1-.2-.2V13.8a.816.816,0,0,0-.185-.524.826.826,0,0,0-.486-.27l-.934-.162h0a.193.193,0,0,1-.147-.108L18.746,8.687a.925.925,0,0,0-.309-.354.773.773,0,0,0-.425-.116H14.154V6.052a.463.463,0,0,0-.471-.462H5.015a.47.47,0,0,0-.471.462V16.192L.5,17.995l.6,1.541,3.489-1.587H6.952a2.719,2.719,0,0,1,.864-1.541,2.689,2.689,0,0,1,3.55,0,2.719,2.719,0,0,1,.864,1.541h4.747a2.719,2.719,0,0,1,.864-1.541,2.68,2.68,0,0,1,4.407,1.541h.332a.293.293,0,0,0,.3-.3V15.259Zm-3.4-2.581H14.316a.185.185,0,0,1-.185-.185V9.165a.185.185,0,0,1,.185-.177h2.979a.649.649,0,0,1,.34.1.624.624,0,0,1,.239.27l1.544,3.082A.192.192,0,0,1,19.363,12.678Z" transform="translate(-0.5 -5.59)" fill="#fff" opacity="0.6"/>
        <path id="Path_1243" data-name="Path 1243" d="M22.759,15.259a.2.2,0,0,1-.2-.2V13.8a.816.816,0,0,0-.185-.524.826.826,0,0,0-.486-.27l-.934-.162h0a.193.193,0,0,1-.147-.108L18.746,8.687a.925.925,0,0,0-.309-.354.773.773,0,0,0-.425-.116H14.154V6.052a.463.463,0,0,0-.471-.462H5.015a.47.47,0,0,0-.471.462V16.192L.5,17.995l.6,1.541,3.489-1.587H6.952a2.719,2.719,0,0,1,.864-1.541,2.689,2.689,0,0,1,3.55,0,2.719,2.719,0,0,1,.864,1.541h4.747a2.719,2.719,0,0,1,.864-1.541,2.68,2.68,0,0,1,4.407,1.541h.332a.293.293,0,0,0,.3-.3V15.259Zm-3.4-2.581H14.316a.185.185,0,0,1-.185-.185V9.165a.185.185,0,0,1,.185-.177h2.979a.649.649,0,0,1,.34.1.624.624,0,0,1,.239.27l1.544,3.082A.192.192,0,0,1,19.363,12.678Z" transform="translate(-0.5 -5.59)" fill="#fff" opacity="0.6"/>
      </g>
      <g id="_4._Embarques-2" data-name="4. Embarques" transform="translate(0 0)" opacity="0.6">
        <path id="Path_1242-2" data-name="Path 1242" d="M11.832,21a1.31,1.31,0,1,0,1.312,1.31A1.311,1.311,0,0,0,11.832,21Z" transform="translate(-2.786 -9.127)" fill="#00263a"/>
        <ellipse id="Ellipse_76-2" data-name="Ellipse 76" cx="1.312" cy="1.31" rx="1.312" ry="1.31" transform="translate(17.791 11.888)" fill="#00263a"/>
        <path id="Path_1283-2" data-name="Path 1283" d="M22.759,15.259a.2.2,0,0,1-.2-.2V13.8a.816.816,0,0,0-.185-.524.826.826,0,0,0-.486-.27l-.934-.162h0a.193.193,0,0,1-.147-.108L18.746,8.687a.925.925,0,0,0-.309-.354.773.773,0,0,0-.425-.116H14.154V6.052a.463.463,0,0,0-.471-.462H5.015a.47.47,0,0,0-.471.462V16.192L.5,17.995l.6,1.541,3.489-1.587H6.952a2.719,2.719,0,0,1,.864-1.541,2.689,2.689,0,0,1,3.55,0,2.719,2.719,0,0,1,.864,1.541h4.747a2.719,2.719,0,0,1,.864-1.541,2.68,2.68,0,0,1,4.407,1.541h.332a.293.293,0,0,0,.3-.3V15.259Zm-3.4-2.581H14.316a.185.185,0,0,1-.185-.185V9.165a.185.185,0,0,1,.185-.177h2.979a.649.649,0,0,1,.34.1.624.624,0,0,1,.239.27l1.544,3.082A.192.192,0,0,1,19.363,12.678Z" transform="translate(-0.5 -5.59)" fill="#00263a"/>
        <path id="Path_1243-2" data-name="Path 1243" d="M22.759,15.259a.2.2,0,0,1-.2-.2V13.8a.816.816,0,0,0-.185-.524.826.826,0,0,0-.486-.27l-.934-.162h0a.193.193,0,0,1-.147-.108L18.746,8.687a.925.925,0,0,0-.309-.354.773.773,0,0,0-.425-.116H14.154V6.052a.463.463,0,0,0-.471-.462H5.015a.47.47,0,0,0-.471.462V16.192L.5,17.995l.6,1.541,3.489-1.587H6.952a2.719,2.719,0,0,1,.864-1.541,2.689,2.689,0,0,1,3.55,0,2.719,2.719,0,0,1,.864,1.541h4.747a2.719,2.719,0,0,1,.864-1.541,2.68,2.68,0,0,1,4.407,1.541h.332a.293.293,0,0,0,.3-.3V15.259Zm-3.4-2.581H14.316a.185.185,0,0,1-.185-.185V9.165a.185.185,0,0,1,.185-.177h2.979a.649.649,0,0,1,.34.1.624.624,0,0,1,.239.27l1.544,3.082A.192.192,0,0,1,19.363,12.678Z" transform="translate(-0.5 -5.59)" fill="#00263a"/>
      </g>
    </g>
    <g id="check" transform="translate(-2 -1)">
      <path id="checked_3_" data-name="checked (3)" d="M8.5,0A8.5,8.5,0,1,0,17,8.5,8.5,8.5,0,0,0,8.5,0ZM6.941,12.867,3.2,9.124,4.445,7.877l2.5,2.5,5.614-5.614L13.8,6.005Z" transform="translate(2 1)" fill="#fff"/>
      <ellipse id="Ellipse_88" data-name="Ellipse 88" cx="7.438" cy="5.894" rx="7.438" ry="5.894" transform="translate(2.014 4.038)" fill="#fff"/>
    </g>
    <g id="check-2" data-name="check" transform="translate(0.772 0.842)">
      <ellipse id="Ellipse_88-2" data-name="Ellipse 88" cx="5.639" cy="4.568" rx="5.639" ry="4.568" transform="translate(1.817 3)" fill="#fff"/>
      <path id="checked_3_2" data-name="checked (3)" d="M7.5,0A7.5,7.5,0,1,0,15,7.5,7.5,7.5,0,0,0,7.5,0ZM6.124,11.353l-3.3-3.3,1.1-1.1,2.2,2.2L11.078,4.2l1.1,1.1Z" transform="translate(0 0)" fill="#00263a"/>
    </g>
  </g>
</svg>
