<svg xmlns="http://www.w3.org/2000/svg" width="23.101" height="15" viewBox="0 0 23.101 15">
  <g id="embarque" opacity="0.8">
    <g id="Capa_1" data-name="Capa 1">
      <path id="Path_92" data-name="Path 92" d="M11.374,15.41a1.354,1.354,0,1,0,1.354,1.354A1.354,1.354,0,0,0,11.374,15.41Z" transform="translate(-2.038 -3.134)" fill="#00263a"/>
      <circle id="Ellipse_5" data-name="Ellipse 5" cx="1.354" cy="1.354" r="1.354" transform="translate(18.362 12.292)" fill="#00263a"/>
      <path id="Path_93" data-name="Path 93" d="M22.974,10a.207.207,0,0,1-.207-.207h0V8.484a.8.8,0,0,0-.693-.8L21.11,7.5h0a.2.2,0,0,1-.151-.112l-2.127-4.2a.95.95,0,0,0-.319-.366.847.847,0,0,0-.438-.119H14.092V.478A.478.478,0,0,0,13.614,0H4.66a.494.494,0,0,0-.486.478V10.961L0,12.825l.621,1.593,3.6-1.673H6.66a2.764,2.764,0,0,1,5.449,0h4.9a2.764,2.764,0,0,1,5.441,0h.343a.3.3,0,0,0,.311-.295h0V10ZM19.469,7.329h-5.21a.191.191,0,0,1-.191-.159V3.7a.191.191,0,0,1,.191-.183h3.075a.674.674,0,0,1,.351.1.649.649,0,0,1,.247.279l1.593,3.186A.207.207,0,0,1,19.469,7.329Z" fill="#00263a"/>
    </g>
  </g>
</svg>
