<svg xmlns="http://www.w3.org/2000/svg" width="11.853" height="15" viewBox="0 0 11.853 15">
  <g id="route" transform="translate(-60.834 -97.843)" opacity="0.8">
    <path id="Path_1676" data-name="Path 1676" d="M64.5,110.313a.218.218,0,0,1,.021.023c.269.3.541.6.808.9h0c.506.559,1,1.106,1.437,1.608.436-.5.929-1.049,1.434-1.608a47.93,47.93,0,0,0,3.413-4.053,5.927,5.927,0,0,0-4.848-9.338h0a5.931,5.931,0,0,0-5.655,7.707,6.046,6.046,0,0,0,.808,1.631h0a37.414,37.414,0,0,0,2.581,3.13" fill="#00263a" fill-rule="evenodd"/>
    <path id="Path_1677" data-name="Path 1677" d="M74.428,111.5v0a2.249,2.249,0,0,0,0,3.18h0a2.249,2.249,0,1,0,3.18-3.181h0a2.242,2.242,0,0,0-1.589-.657h0a2.244,2.244,0,0,0-1.591.659" transform="translate(-9.215 -9.267)" fill="#fefefe" fill-rule="evenodd"/>
  </g>
</svg>
