<svg xmlns="http://www.w3.org/2000/svg" width="33" height="19" viewBox="0 0 33 19"><g transform="translate(1 1)"><g transform="translate(9.617 2.842)"><g transform="translate(0 0)" opacity="0.6"><path d="M11.832,21a1.31,1.31,0,1,0,1.312,1.31A1.311,1.311,0,0,0,11.832,21Z" transform="translate(-2.786 -9.127)" fill="#fff" opacity="0.6"/><ellipse cx="1.312" cy="1.31" rx="1.312" ry="1.31" transform="translate(17.791 11.888)" fill="#fff" opacity="0.6"/><path d="M22.759,15.259a.2.2,0,0,1-.2-.2V13.8a.816.816,0,0,0-.185-.524.826.826,0,0,0-.486-.27l-.934-.162h0a.193.193,0,0,1-.147-.108L18.746,8.687a.925.925,0,0,0-.309-.354.773.773,0,0,0-.425-.116H14.154V6.052a.463.463,0,0,0-.471-.462H5.015a.47.47,0,0,0-.471.462V16.192L.5,17.995l.6,1.541,3.489-1.587H6.952a2.719,2.719,0,0,1,.864-1.541,2.689,2.689,0,0,1,3.55,0,2.719,2.719,0,0,1,.864,1.541h4.747a2.719,2.719,0,0,1,.864-1.541,2.68,2.68,0,0,1,4.407,1.541h.332a.293.293,0,0,0,.3-.3V15.259Zm-3.4-2.581H14.316a.185.185,0,0,1-.185-.185V9.165a.185.185,0,0,1,.185-.177h2.979a.649.649,0,0,1,.34.1.624.624,0,0,1,.239.27l1.544,3.082A.192.192,0,0,1,19.363,12.678Z" transform="translate(-0.5 -5.59)" fill="#fff" opacity="0.6"/><path d="M22.759,15.259a.2.2,0,0,1-.2-.2V13.8a.816.816,0,0,0-.185-.524.826.826,0,0,0-.486-.27l-.934-.162h0a.193.193,0,0,1-.147-.108L18.746,8.687a.925.925,0,0,0-.309-.354.773.773,0,0,0-.425-.116H14.154V6.052a.463.463,0,0,0-.471-.462H5.015a.47.47,0,0,0-.471.462V16.192L.5,17.995l.6,1.541,3.489-1.587H6.952a2.719,2.719,0,0,1,.864-1.541,2.689,2.689,0,0,1,3.55,0,2.719,2.719,0,0,1,.864,1.541h4.747a2.719,2.719,0,0,1,.864-1.541,2.68,2.68,0,0,1,4.407,1.541h.332a.293.293,0,0,0,.3-.3V15.259Zm-3.4-2.581H14.316a.185.185,0,0,1-.185-.185V9.165a.185.185,0,0,1,.185-.177h2.979a.649.649,0,0,1,.34.1.624.624,0,0,1,.239.27l1.544,3.082A.192.192,0,0,1,19.363,12.678Z" transform="translate(-0.5 -5.59)" fill="#fff" opacity="0.6"/></g><g transform="translate(0 0)" opacity="0.6"><path d="M11.832,21a1.31,1.31,0,1,0,1.312,1.31A1.311,1.311,0,0,0,11.832,21Z" transform="translate(-2.786 -9.127)" fill="#00263a"/><ellipse cx="1.312" cy="1.31" rx="1.312" ry="1.31" transform="translate(17.791 11.888)" fill="#00263a"/><path d="M22.759,15.259a.2.2,0,0,1-.2-.2V13.8a.816.816,0,0,0-.185-.524.826.826,0,0,0-.486-.27l-.934-.162h0a.193.193,0,0,1-.147-.108L18.746,8.687a.925.925,0,0,0-.309-.354.773.773,0,0,0-.425-.116H14.154V6.052a.463.463,0,0,0-.471-.462H5.015a.47.47,0,0,0-.471.462V16.192L.5,17.995l.6,1.541,3.489-1.587H6.952a2.719,2.719,0,0,1,.864-1.541,2.689,2.689,0,0,1,3.55,0,2.719,2.719,0,0,1,.864,1.541h4.747a2.719,2.719,0,0,1,.864-1.541,2.68,2.68,0,0,1,4.407,1.541h.332a.293.293,0,0,0,.3-.3V15.259Zm-3.4-2.581H14.316a.185.185,0,0,1-.185-.185V9.165a.185.185,0,0,1,.185-.177h2.979a.649.649,0,0,1,.34.1.624.624,0,0,1,.239.27l1.544,3.082A.192.192,0,0,1,19.363,12.678Z" transform="translate(-0.5 -5.59)" fill="#00263a"/><path d="M22.759,15.259a.2.2,0,0,1-.2-.2V13.8a.816.816,0,0,0-.185-.524.826.826,0,0,0-.486-.27l-.934-.162h0a.193.193,0,0,1-.147-.108L18.746,8.687a.925.925,0,0,0-.309-.354.773.773,0,0,0-.425-.116H14.154V6.052a.463.463,0,0,0-.471-.462H5.015a.47.47,0,0,0-.471.462V16.192L.5,17.995l.6,1.541,3.489-1.587H6.952a2.719,2.719,0,0,1,.864-1.541,2.689,2.689,0,0,1,3.55,0,2.719,2.719,0,0,1,.864,1.541h4.747a2.719,2.719,0,0,1,.864-1.541,2.68,2.68,0,0,1,4.407,1.541h.332a.293.293,0,0,0,.3-.3V15.259Zm-3.4-2.581H14.316a.185.185,0,0,1-.185-.185V9.165a.185.185,0,0,1,.185-.177h2.979a.649.649,0,0,1,.34.1.624.624,0,0,1,.239.27l1.544,3.082A.192.192,0,0,1,19.363,12.678Z" transform="translate(-0.5 -5.59)" fill="#00263a"/></g></g><g transform="translate(-1 -1)"><ellipse cx="7.438" cy="5.894" rx="7.438" ry="5.894" transform="translate(2.014 4.038)" fill="#fff"/></g><g transform="translate(-1 -1)"><g transform="translate(1 1)" fill="#00263a"><path d="M 8.5 17.5 C 3.53737998008728 17.5 -0.5 13.46261978149414 -0.5 8.5 C -0.5 3.53737998008728 3.53737998008728 -0.5 8.5 -0.5 C 13.46261978149414 -0.5 17.5 3.53737998008728 17.5 8.5 C 17.5 13.46261978149414 13.46261978149414 17.5 8.5 17.5 Z" stroke="none"/><path d="M 8.5 0 C 3.805580139160156 0 0 3.805580139160156 0 8.5 C 0 13.19441986083984 3.805580139160156 17 8.5 17 C 13.19441986083984 17 17 13.19441986083984 17 8.5 C 17 3.805580139160156 13.19441986083984 0 8.5 0 M 8.5 -1 C 13.73832035064697 -1 18 3.261679649353027 18 8.5 C 18 13.73832035064697 13.73832035064697 18 8.5 18 C 3.261679649353027 18 -1 13.73832035064697 -1 8.5 C -1 3.261679649353027 3.261679649353027 -1 8.5 -1 Z" stroke="none" fill="#fff"/></g><path d="M13.391,4.925a8.713,8.713,0,0,1-1.1.093,8.842,8.842,0,0,1-1.8-.27A9.208,9.208,0,0,0,8.627,4.5a3.531,3.531,0,0,0-1.784.3l-.093.064V13H7.812V9.055a6.715,6.715,0,0,1,.817-.044,8.958,8.958,0,0,1,1.766.343,9.494,9.494,0,0,0,1.924.255,8.785,8.785,0,0,0,1.071-.089c.166-.02.31-.038.443-.06v-4.6C13.723,4.881,13.557,4.905,13.391,4.925Z" transform="translate(0 1)" fill="#fff"/></g></g></svg>