<svg xmlns="http://www.w3.org/2000/svg" width="23.153" height="14" viewBox="0 0 23.153 14">
  <g id="Group_1882" data-name="Group 1882" transform="translate(-8.4 -17.29)" opacity="0.8">
    <circle id="Ellipse_6" data-name="Ellipse 6" cx="1.411" cy="1.411" r="1.411" transform="translate(10.707 28.468)" fill="#00263a"/>
    <circle id="Ellipse_7" data-name="Ellipse 7" cx="1.411" cy="1.411" r="1.411" transform="translate(26.547 28.468)" fill="#00263a"/>
    <path id="Path_98" data-name="Path 98" d="M31.357,26.9a.22.22,0,0,1-.221-.2h0V25.327a.834.834,0,0,0-.724-.859L29.382,24.3h0a.209.209,0,0,1-.16-.123l-2.16-4.368a.913.913,0,0,0-.331-.38.845.845,0,0,0-.454-.123H22.056v-1.5a.515.515,0,0,0-.5-.515H8.9a.5.5,0,0,0-.5.5h0V28.971h.933a2.95,2.95,0,0,1,.92-1.632,2.9,2.9,0,0,1,4.761,1.632H25.087a2.883,2.883,0,0,1,5.681,0h.454a.331.331,0,0,0,.331-.331h0V26.9Zm-3.681-2.785H22.253a.2.2,0,0,1-.2-.2v-3.6a.2.2,0,0,1,.2-.2h3.215a.645.645,0,0,1,.368.11.746.746,0,0,1,.258.294l1.693,3.325a.184.184,0,0,1-.074.245h0Z" transform="translate(0 0)" fill="#00263a" fill-rule="evenodd"/>
  </g>
</svg>
