<svg xmlns="http://www.w3.org/2000/svg" xmlns:xlink="http://www.w3.org/1999/xlink" width="30.795" height="20.469" viewBox="0 0 30.795 20.469">
  <defs>
    <clipPath id="clip-path">
      <rect width="30.796" height="20.468" fill="none"/>
    </clipPath>
  </defs>
  <g id="zone" clip-path="url(#clip-path)">
    <path id="warehouse" d="M14.058,9.639V5.623L8.435,9.639V5.623H7.029V2.343H5.623v3.28H4.217V0H1.406V5.623H0V16.4H19.681V5.623ZM7.5,14.058H5.623V12.183H7.5Zm3.28,0H8.9V12.183h1.874Zm3.28,0H12.183V12.183h1.874Z" transform="translate(11.115 2.599)" fill="#657c88"/>
    <g id="Group_1658" data-name="Group 1658" transform="translate(-126 -139)">
      <path id="Path_1302" data-name="Path 1302" d="M20.432,0a7.551,7.551,0,0,0-7.549,7.536,7.339,7.339,0,0,0,.66,3.076,47.509,47.509,0,0,0,6.57,9.711.421.421,0,0,0,.637,0,47.532,47.532,0,0,0,6.571-9.711,7.336,7.336,0,0,0,.66-3.076A7.551,7.551,0,0,0,20.432,0Zm0,11.45a3.914,3.914,0,1,1,3.921-3.914A3.922,3.922,0,0,1,20.432,11.45Z" transform="translate(113.117 139)" fill="#fff"/>
      <path id="Path_1302-2" data-name="Path 1302" d="M19.506,0a6.631,6.631,0,0,0-6.623,6.624,6.461,6.461,0,0,0,.579,2.7,41.762,41.762,0,0,0,5.765,8.536.369.369,0,0,0,.559,0,41.782,41.782,0,0,0,5.765-8.536,6.458,6.458,0,0,0,.579-2.7A6.632,6.632,0,0,0,19.506,0Zm0,10.064a3.441,3.441,0,1,1,3.44-3.44A3.445,3.445,0,0,1,19.506,10.064Z" transform="translate(113.117 140)" fill="#00263a"/>
    </g>
  </g>
</svg>
